PathFileType	4	(X/Y/Z)	/Users/itak/Documents/Research/Walk-IL/dataset/trc/00343_00011.trc
DataRate	CameraRate	NumFrames	NumMarkers	Units	OrigDataRate	OrigDataStartFrame	OrigNumFrames
100.000000	100.000000	4	54	mm	100.000000	0	772
Frame#	Time	RPSI			LPSI			L3			STRN			T10			C7			CLAV			RBAK			LBAK			LSHO			LUPA			LAEL			LAOL			LWTS			LWPS			LFRA			LIFD			LHPS			LHTS			RSHO			RUPA			RAEL			RAOL			RWTS			RWPS			RFRA			RIFD			RHTS			RHPS			RBHD			LFHD			RFHD			LBHD			LHIP			RHIP			RASI			LASI			LKNE			LTHI			LANK			LTIP			LTOE			LMT1			LMT5			LHEE			RKNE			RTHI			RTIP			RTOE			RMT1			RMT5			RHEE			RANK			*53			
		X1	Y1	Z1	X2	Y2	Z2	X3	Y3	Z3	X4	Y4	Z4	X5	Y5	Z5	X6	Y6	Z6	X7	Y7	Z7	X8	Y8	Z8	X9	Y9	Z9	X10	Y10	Z10	X11	Y11	Z11	X12	Y12	Z12	X13	Y13	Z13	X14	Y14	Z14	X15	Y15	Z15	X16	Y16	Z16	X17	Y17	Z17	X18	Y18	Z18	X19	Y19	Z19	X20	Y20	Z20	X21	Y21	Z21	X22	Y22	Z22	X23	Y23	Z23	X24	Y24	Z24	X25	Y25	Z25	X26	Y26	Z26	X27	Y27	Z27	X28	Y28	Z28	X29	Y29	Z29	X30	Y30	Z30	X31	Y31	Z31	X32	Y32	Z32	X33	Y33	Z33	X34	Y34	Z34	X35	Y35	Z35	X36	Y36	Z36	X37	Y37	Z37	X38	Y38	Z38	X39	Y39	Z39	X40	Y40	Z40	X41	Y41	Z41	X42	Y42	Z42	X43	Y43	Z43	X44	Y44	Z44	X45	Y45	Z45	X46	Y46	Z46	X47	Y47	Z47	X48	Y48	Z48	X49	Y49	Z49	X50	Y50	Z50	X51	Y51	Z51	X52	Y52	Z52	X53	Y53	Z53	X54	Y54	Z54	

1	0	-94.07611083984375	986.2815551757812	1168.821655273438	-99.21045684814453	984.5241088867188	1039.728881835938	-95.27735137939453	1037.134765625	1106.50341796875	118.783203125	1220.49365234375	1082.57080078125	-115.2117691040039	1154.988647460938	1090.386596679688	-78.13058471679688	1403.769775390625	1068.66455078125	76.47470855712891	1346.451782226562	1075.304443359375	-125.101432800293	1266.756103515625	1139.684692382812	-87.60390472412109	1364.2412109375	967.172119140625	-1.373996734619141	1379.608276367188	910.4100952148438	-16.87251472473145	1256.519775390625	846.2749633789062	9.260985374450684	1052.457763671875	841.664794921875	-57.84481430053711	1039.59912109375	894.4130249023438	100.1988296508789	809.8997802734375	902.2179565429688	68.16978454589844	799.39013671875	842.6556396484375	27.0014476776123	948.200927734375	839.4502563476562	102.4531555175781	649.8993530273438	910.0082397460938	63.45509338378906	728.88134765625	848.9584350585938	113.6730422973633	731.1439819335938	888.5455322265625	-21.28632545471191	1394.6474609375	1232.547973632812	-30.65995216369629	1329.524291992188	1296.739379882812	-6.226794719696045	1061.80078125	1333.673828125	-55.51271820068359	1053.130737304688	1252.712890625	101.4976577758789	834.9447021484375	1276.521728515625	76.71147155761719	821.042724609375	1347.431396484375	22.47455978393555	996.5403442382812	1339.494262695312	116.5021209716797	662.5686645507812	1283.102661132812	134.1587982177734	734.3276977539062	1288.500122070312	92.84645843505859	736.57275390625	1344.531005859375	-62.59184646606445	1593.670043945312	1121.41796875	135.4631652832031	1632.778686523438	1068.565185546875	91.43959808349609	1630.680297851562	1159.557495117188	-23.27373695373535	1587.757202148438	982.0234375	-21.62506675720215	922.0634765625	933.4712524414062	-6.0602126121521	927.1400756835938	1271.175537109375	93.40196990966797	954.673828125	1227.401611328125	104.2548980712891	943.2346801757812	986.45947265625	-14.94194030761719	465.4273071289062	937.7646484375	1.290026426315308	602.1296997070312	928.6820678710938	-95.88525390625	48.53514862060547	940.32666015625	-60.40646743774414	252.9916076660156	925.3330688476562	109.4983978271484	43.09552001953125	1000.943115234375	40.29702377319336	31.74017524719238	1040.696533203125	30.23895835876465	44.10116958618164	928.283447265625	-130.8878173828125	44.38307571411133	1006.942687988281	-8.083266258239746	466.9507751464844	1271.025634765625	47.58856201171875	722.4552612304688	1281.874633789062	-2.453227043151855	349.5902404785156	1266.219604492188	127.2077255249023	45.29880905151367	1187.47607421875	67.76334381103516	40.62655639648438	1154.60498046875	45.89215469360352	38.20594787597656	1270.593383789062	-114.2368850708008	52.27368927001953	1223.80322265625	-57.30206298828125	51.09504318237305	1264.902099609375	nan	nan	nan	
2	0.01	-94.08277893066406	986.2921142578125	1168.77197265625	-99.21470642089844	984.4974365234375	1039.596069335938	-95.27540588378906	1037.130859375	1106.411865234375	118.7681427001953	1220.461181640625	1082.4931640625	-115.1830902099609	1154.971069335938	1090.333984375	-78.10495758056641	1403.76953125	1068.603759765625	76.51774597167969	1346.439208984375	1075.213500976562	-125.1210098266602	1266.776000976562	1139.643798828125	-87.60053253173828	1364.218994140625	967.1151123046875	-1.341635346412659	1379.590576171875	910.312255859375	-16.88496780395508	1256.505004882812	846.192626953125	9.242314338684082	1052.447875976562	841.5657958984375	-57.8313102722168	1039.608276367188	894.3129272460938	100.2307357788086	809.9219970703125	902.13330078125	68.19655609130859	799.36962890625	842.5701293945312	27.02449607849121	948.1912231445312	839.3679809570312	102.5639572143555	649.97314453125	909.91943359375	63.48648452758789	728.8515014648438	848.9170532226562	113.7180709838867	731.125	888.442626953125	-21.29791831970215	1394.682250976562	1232.4755859375	-30.5738353729248	1329.561889648438	1296.634887695312	-6.150962829589844	1061.811401367188	1333.591552734375	-55.42979431152344	1053.125	1252.634887695312	101.4878540039062	834.9033813476562	1276.5859375	76.70801544189453	821.0554809570312	1347.456420898438	22.52938079833984	996.5563354492188	1339.476196289062	116.5087280273438	662.5806884765625	1283.194213867188	134.1494903564453	734.208984375	1288.605590820312	92.82590484619141	736.6004028320312	1344.595336914062	-62.53734970092773	1593.656616210938	1121.3564453125	135.5641632080078	1632.756958007812	1068.4365234375	91.53145599365234	1630.628051757812	1159.46728515625	-23.27060890197754	1587.786010742188	981.9588623046875	-21.60356140136719	922.0509033203125	933.4030151367188	-6.110588550567627	927.1630859375	1271.134887695312	93.43631744384766	954.703857421875	1227.302978515625	104.26806640625	943.2484130859375	986.3681030273438	-14.96083068847656	465.4104614257812	937.6847534179688	1.30804443359375	602.1188354492188	928.600341796875	-95.88609313964844	48.5234260559082	940.3190307617188	-60.42576599121094	252.9668884277344	925.3103637695312	109.4960098266602	43.10144805908203	1000.945129394531	40.29640960693359	31.74610328674316	1040.696533203125	30.24588966369629	44.11019134521484	928.2764282226562	-130.9076995849609	44.3857307434082	1006.926818847656	-8.043209075927734	466.9385681152344	1270.943969726562	47.54912948608398	722.5189208984375	1281.823364257812	-2.441367387771606	349.6018981933594	1266.182983398438	127.2136383056641	45.29849624633789	1187.475708007812	67.75971984863281	40.62540054321289	1154.602172851562	45.87936401367188	38.20035552978516	1270.587158203125	-114.2294692993164	52.2706184387207	1223.801391601562	-57.2974739074707	51.10323715209961	1264.901489257812	nan	nan	nan	
3	0.02	-94.09429168701172	986.3086547851562	1168.714599609375	-99.21778869628906	984.4672241210938	1039.445556640625	-95.27357482910156	1037.125366210938	1106.296997070312	118.7542724609375	1220.42431640625	1082.391357421875	-115.1542663574219	1154.951782226562	1090.266479492188	-78.07388305664062	1403.769653320312	1068.520141601562	76.56922912597656	1346.423583984375	1075.099853515625	-125.1383209228516	1266.7998046875	1139.586303710938	-87.60047149658203	1364.192138671875	967.0427856445312	-1.30683445930481	1379.56787109375	910.1890258789062	-16.89138412475586	1256.486572265625	846.0902709960938	9.233038902282715	1052.43505859375	841.4461669921875	-57.81017303466797	1039.615112304688	894.1834716796875	100.2730178833008	809.9488525390625	902.0418090820312	68.2430419921875	799.3428344726562	842.4730224609375	27.06048774719238	948.176025390625	839.270263671875	102.7234954833984	650.0735473632812	909.8181762695312	63.53756332397461	728.8151245117188	848.8733520507812	113.789924621582	731.109619140625	888.3215942382812	-21.30584716796875	1394.726196289062	1232.371826171875	-30.47063636779785	1329.6083984375	1296.503295898438	-6.067880153656006	1061.824951171875	1333.483276367188	-55.32502746582031	1053.117065429688	1252.528564453125	101.4804840087891	834.8637084960938	1276.645263671875	76.69393157958984	821.0672607421875	1347.470092773438	22.59521293640137	996.5723266601562	1339.446533203125	116.507453918457	662.5963134765625	1283.293334960938	134.1367645263672	734.0900268554688	1288.713500976562	92.80233764648438	736.627685546875	1344.661987304688	-62.45843124389648	1593.635498046875	1121.27197265625	135.6849212646484	1632.726806640625	1068.279052734375	91.65425109863281	1630.574340820312	1159.340087890625	-23.26261520385742	1587.820922851562	981.8720703125	-21.57265090942383	922.0292358398438	933.3057861328125	-6.186800956726074	927.19384765625	1271.077392578125	93.47660064697266	954.7377319335938	1227.176025390625	104.2856750488281	943.2697143554688	986.245849609375	-14.98276042938232	465.39111328125	937.5918579101562	1.333753108978271	602.0993041992188	928.50048828125	-95.88890838623047	48.50978088378906	940.3102416992188	-60.44610595703125	252.9349822998047	925.2814331054688	109.4924926757812	43.10772323608398	1000.946655273438	40.29657745361328	31.75275421142578	1040.69580078125	30.25169372558594	44.11641693115234	928.26904296875	-130.9180908203125	44.38706970214844	1006.913269042969	-7.981758594512939	466.9189147949219	1270.828857421875	47.48289489746094	722.6046142578125	1281.764038085938	-2.426712036132812	349.6145935058594	1266.13671875	127.218132019043	45.29794692993164	1187.474243164062	67.75766754150391	40.62424850463867	1154.59814453125	45.86944198608398	38.19874572753906	1270.581909179688	-114.2223739624023	52.26773071289062	1223.800170898438	-57.29339218139648	51.11420440673828	1264.900146484375	nan	nan	nan	
4	0.03	-94.11030578613281	986.3307495117188	1168.651489257812	-99.21981048583984	984.4361572265625	1039.289916992188	-95.27277374267578	1037.118286132812	1106.164306640625	118.7443695068359	1220.387084960938	1082.26611328125	-115.1292114257812	1154.932739257812	1090.185546875	-78.0386962890625	1403.77001953125	1068.413940429688	76.62443542480469	1346.406005859375	1074.970581054688	-125.1484527587891	1266.824951171875	1139.5107421875	-87.60513305664062	1364.161865234375	966.9569091796875	-1.273981928825378	1379.540771484375	910.0447998046875	-16.88771629333496	1256.465087890625	845.9725952148438	9.239938735961914	1052.419677734375	841.313232421875	-57.78260040283203	1039.61474609375	894.0294189453125	100.3253707885742	809.978271484375	901.95361328125	68.31353759765625	799.3102416992188	842.3727416992188	27.1112003326416	948.1544799804688	839.1637573242188	102.9339752197266	650.1983032226562	909.718505859375	63.61342239379883	728.7740478515625	848.8323364257812	113.8908081054688	731.10400390625	888.1973266601562	-21.3065128326416	1394.77685546875	1232.234985351562	-30.35784912109375	1329.661254882812	1296.350463867188	-5.989081859588623	1061.840087890625	1333.3515625	-55.20349502563477	1053.106323242188	1252.394775390625	101.4780044555664	834.8328857421875	1276.686767578125	76.66648101806641	821.076416015625	1347.4638671875	22.66752624511719	996.5857543945312	1339.402954101562	116.4941940307617	662.6143188476562	1283.386962890625	134.1208343505859	733.9893188476562	1288.808349609375	92.77718353271484	736.6500244140625	1344.720703125	-62.35397338867188	1593.607421875	1121.164306640625	135.8164825439453	1632.688598632812	1068.102783203125	91.80448913574219	1630.524169921875	1159.177612304688	-23.24788093566895	1587.8603515625	981.7627563476562	-21.53048515319824	921.99609375	933.1785888671875	-6.288876533508301	927.2311401367188	1271.001831054688	93.51930236816406	954.7721557617188	1227.025146484375	104.3064498901367	943.2988891601562	986.0944213867188	-15.00544548034668	465.3695678710938	937.4934692382812	1.367482781410217	602.0708618164062	928.387451171875	-95.89337158203125	48.49612426757812	940.3013916015625	-60.46446228027344	252.8972930908203	925.2474975585938	109.4878082275391	43.11390686035156	1000.947326660156	40.29784393310547	31.75932884216309	1040.6943359375	30.25509071350098	44.11882019042969	928.2626342773438	-130.916259765625	44.38710021972656	1006.904113769531	-7.897703647613525	466.8914184570312	1270.681640625	47.38785934448242	722.7109985351562	1281.701049804688	-2.409768581390381	349.6274719238281	1266.082885742188	127.2204742431641	45.29682540893555	1187.472045898438	67.75827789306641	40.62290954589844	1154.592895507812	45.86517333984375	38.20343780517578	1270.578735351562	-114.2167510986328	52.26518249511719	1223.80078125	-57.29062652587891	51.12786865234375	1264.897827148438	nan	nan	nan	
